:version 1.10
:name ASF
:units
  mass 1
  length 1
  angle deg
:documentation
  ASF file generated by Kaydara
:root
  axis xyz
  order  tx ty tz rx ry rz
  position 0 0 0
  orientation 0 0 0
:bonedata
  begin
    id 1
    name abdomenDummy
    direction 1 -1.27917e-005 -1.26829e-007
    length 1.79048
    axis 0 0 0 xyz
  end
  begin
    id 2
    name abdomen
    direction 0.987238 0.159249 -9.68575e-008
    length 8.61378
    axis 2.73208e-005 5.54953e-006 9.16328 xyz
    dof rx ry rz
  end
  begin
    id 3
    name chest
    direction 0 0 0
    length 0
    axis 2.65071e-005 8.63688e-006 2.59796 xyz
    dof rx ry rz
  end
  begin
    id 4
    name neckDummyDummy
    direction 0.998972 0.0453274 -1.50742e-007
    length 9.56202
    axis 2.65071e-005 8.63688e-006 2.59796 xyz
  end
  begin
    id 5
    name neckDummy
    direction 0.99977 0.0214525 -1.61748e-007
    length 1.93574
    axis 2.62932e-005 9.26758e-006 1.22924 xyz
    dof rx ry rz
  end
  begin
    id 6
    name neck
    direction 0.99928 -0.0379406 -1.88707e-007
    length 3.70367
    axis 2.56966e-005 1.08122e-005 -2.17436 xyz
    dof rx ry rz
  end
  begin
    id 7
    name head
    direction 0.992648 -0.121037 -2.25408e-007
    length 6.35158
    axis 2.47068e-005 1.29149e-005 -6.95196 xyz
    dof rx ry rz
  end
  begin
    id 8
    name figureHair
    direction -0.86681 -0.498639 -7.83376e-008
    length 8.29884
    axis -2.7515e-005 4.48842e-006 -150.09 xyz
    dof rx ry rz
  end
  begin
    id 9
    name lCollarDummy
    direction 0.994611 0.0451299 -0.0933417
    length 9.60395
    axis 2.65071e-005 8.63688e-006 2.59796 xyz
  end
  begin
    id 10
    name lCollar
    direction 0.0384146 0.00127577 -0.999261
    length 6.95318
    axis 90.4899 87.7973 1.90202 xyz
    dof rx ry rz
  end
  begin
    id 11
    name lShldr
    direction -0.030648 0.0920515 -0.995282
    length 9.61158
    axis -161.793 84.4324 108.415 xyz
    dof rx ry rz
  end
  begin
    id 12
    name lForeArm
    direction 0.000163956 -0.0977586 -0.99521
    length 8.6068
    axis 0.134773 84.3899 -89.8525 xyz
    dof rx ry rz
  end
  begin
    id 13
    name lHand
    direction -0.0190533 -0.1444 -0.989336
    length 7.61479
    axis -7.3729 81.6249 -97.517 xyz
    dof rx ry rz
  end
  begin
    id 14
    name rCollarDummy
    direction 0.994871 0.0442627 0.0909555
    length 9.60761
    axis 2.65071e-005 8.63688e-006 2.59796 xyz
  end
  begin
    id 15
    name rCollar
    direction 0.0334251 -4.74072e-007 0.999441
    length 6.97058
    axis -178.152 -88.0845 -0.000674207 xyz
    dof rx ry rz
  end
  begin
    id 16
    name rShldr
    direction -0.026922 0.0719509 0.997045
    length 9.60913
    axis 71.2822 -85.594 110.514 xyz
    dof rx ry rz
  end
  begin
    id 17
    name rForeArm
    direction 0.00134679 -0.118986 0.992895
    length 8.57176
    axis -88.7923 -83.1659 -89.3516 xyz
    dof rx ry rz
  end
  begin
    id 18
    name rHand
    direction -0.0185183 -0.0768601 0.99687
    length 7.69687
    axis -74.5596 -85.4655 -103.546 xyz
    dof rx ry rz
  end
  begin
    id 19
    name lThighDummy
    direction -0.236086 -0.0385456 -0.970967
    length 4.99155
    axis 0 0 0 xyz
  end
  begin
    id 20
    name lThigh
    direction -0.993968 0.0148998 -0.108653
    length 13.572
    axis -91.4001 6.23768 179.141 xyz
    dof rx ry rz
  end
  begin
    id 21
    name lShin
    direction -0.992341 0.0904576 -0.0841193
    length 18.5862
    axis -91.4558 4.82538 174.792 xyz
    dof rx ry rz
  end
  begin
    id 22
    name lFoot
    direction 0.0209381 -0.999771 -0.00453005
    length 8.44474
    axis 4.86759 0.259522 -88.8001 xyz
    dof rx ry rz
  end
  begin
    id 23
    name rThighDummy
    direction -0.236086 -0.0385456 0.970967
    length 4.99155
    axis 0 0 0 xyz
  end
  begin
    id 24
    name rThigh
    direction -0.993968 0.0148995 0.108653
    length 13.5721
    axis -89.7059 -6.2377 179.141 xyz
    dof rx ry rz
  end
  begin
    id 25
    name rShin
    direction -0.9925 0.0899962 0.0827255
    length 18.6716
    axis -89.2745 -4.74775 174.819 xyz
    dof rx ry rz
  end
  begin
    id 26
    name rFoot
    direction 0.0301721 -0.999545 9.70865e-005
    length 8.45013
    axis -2.50066e-005 -0.00555246 -88.271 xyz
    dof rx ry rz
  end
:hierarchy
  begin
    root abdomenDummy lThighDummy rThighDummy
    abdomenDummy abdomen
    abdomen chest
    chest neckDummyDummy lCollarDummy rCollarDummy
    neckDummyDummy neckDummy
    neckDummy neck
    neck head
    head figureHair
    lCollarDummy lCollar
    lCollar lShldr
    lShldr lForeArm
    lForeArm lHand
    rCollarDummy rCollar
    rCollar rShldr
    rShldr rForeArm
    rForeArm rHand
    lThighDummy lThigh
    lThigh lShin
    lShin lFoot
    rThighDummy rThigh
    rThigh rShin
    rShin rFoot
  end

:SAMPLES-PER-SECOND 25
:FULLY-SPECIFIED
:DEGREES
158
root  -55.276 37.2801 24.3212 160.542 1.77557 89.7316
abdomen  -1.06961 -1.24035 -4.13539
chest  -1.09368 -0.88356 -5.35744
neckDummy  3.03321e-021 0 6.73878e-016
neck  -4.60181 12.8957 14.0491
head  -10.0152 -14.1165 -2.6312
figureHair  0 0 -1.04948e-014
lCollar  -3.38943e-016 -6.49156e-016 -7.51406e-014
lShldr  -13.1591 2.9495 -31.2147
lForeArm  27.5826 -8.64183 -1.90761
lHand  0.254698 0.195082 5.2986
rCollar  2.67893e-016 -5.20816e-014 1.63997e-015
rShldr  34.085 15.8477 0.617906
rForeArm  1.87488 -0.0934369 9.67355
rHand  0.000286532 -15.6291 4.33693
lThigh  -7.22316 -8.66515 1.22558
lShin  -13.3607 1.50482 -5.31508
lFoot  4.36227 -0.09496 -10.1378
rThigh  13.3566 -6.53913 -3.70464
rShin  15.6704 13.8487 6.25744
rFoot  -4.89247 0.97069 2.93544
159
root  -54.9942 37.2671 24.1294 161.89 2.12637 90.3413
abdomen  -1.08755 -1.80834 -4.8949
chest  -0.929508 0.32658 -4.16914
neckDummy  3.03321e-021 0 6.73878e-016
neck  -5.36601 12.2557 13.4274
head  -10.5247 -14.1495 -1.86918
figureHair  0 0 -1.04948e-014
lCollar  -3.38943e-016 -6.49156e-016 -7.51406e-014
lShldr  -14.4629 4.42181 -29.2899
lForeArm  25.4135 -7.59623 -1.69029
lHand  0.254698 0.195082 5.2986
rCollar  2.67893e-016 -5.20816e-014 1.63997e-015
rShldr  34.967 13.6757 -0.409948
rForeArm  2.30898 -0.219797 9.80055
rHand  -0.0230546 -15.7908 4.50028
lThigh  -6.74411 -10.3346 1.04367
lShin  -13.5562 2.03885 -4.88616
lFoot  3.69462 -0.0746709 -10.0307
rThigh  13.6528 -7.4326 -3.6961
rShin  17.0656 14.1342 6.81237
rFoot  -5.44425 1.06674 3.03962
160
root  -54.752 37.2985 23.9757 163.131 2.55081 90.3943
abdomen  -0.872923 -2.08914 -6.41634
chest  -0.515154 1.58001 -2.15692
neckDummy  3.03321e-021 0 6.73878e-016
neck  -6.61719 10.8831 10.3721
head  -11.1848 -13.6329 0.473379
figureHair  0 0 -1.04948e-014
lCollar  -3.38943e-016 -6.49156e-016 -7.51406e-014
lShldr  -15.25 5.46053 -27.7123
lForeArm  23.841 -6.26668 -1.41004
lHand  0.254698 0.195082 5.2986
rCollar  2.67893e-016 -5.20816e-014 1.63997e-015
rShldr  34.8179 12.1292 -1.76056
rForeArm  4.7871 -0.30846 9.83843
rHand  0.161906 -16.7998 3.401
lThigh  -6.63503 -11.2839 0.587407
lShin  -15.0642 3.11024 -5.11564
lFoot  2.89145 -0.214427 -9.3757
rThigh  13.796 -7.6472 -3.82057
rShin  18.1855 14.1405 7.04626
rFoot  -5.87148 1.12585 3.00347
161
root  -54.5655 37.3718 23.8656 164.188 3.16516 90.0716
abdomen  -0.630468 -1.28646 -7.29351
chest  -0.318929 1.48599 -1.77338
neckDummy  3.03321e-021 0 6.73878e-016
neck  -7.13343 11.0441 9.25644
head  -11.7903 -13.9291 1.42253
figureHair  0 0 -1.04948e-014
lCollar  -3.38943e-016 -6.49156e-016 -7.51406e-014
lShldr  -15.5762 7.25303 -27.1327
lForeArm  22.1262 -7.18836 -1.248
lHand  0.254698 0.195082 5.2986
rCollar  2.67893e-016 -5.20816e-014 1.63997e-015
rShldr  35.4225 10.6164 -1.89848
rForeArm  6.05135 -0.44465 9.40801
rHand  0.257193 -17.5544 2.90525
lThigh  -7.05617 -12.1096 -0.515368
lShin  -16.8029 5.85568 -5.77238
lFoot  3.1216 0.314918 -7.35183
rThigh  14.0133 -7.40257 -4.24782
rShin  19.0277 13.9136 7.1122
rFoot  -6.12638 1.14647 2.87778
162
root  -54.4462 37.4282 23.7962 165.41 3.64705 89.9264
abdomen  -0.581588 -0.494963 -7.0794
chest  -0.358226 1.10503 -2.59601
neckDummy  3.03321e-021 0 6.73878e-016
neck  -7.45208 12.0975 8.83788
head  -12.5642 -14.9631 1.77896
figureHair  0 0 -1.04948e-014
lCollar  -3.38943e-016 -6.49156e-016 -7.51406e-014
lShldr  -16.9817 8.08223 -26.7954
lForeArm  22.0957 -7.40703 -0.994377
lHand  0.254698 0.195082 5.2986
rCollar  2.67893e-016 -5.20816e-014 1.63997e-015
rShldr  35.9441 9.37683 -1.47831
rForeArm  5.40273 -0.498529 8.89008
rHand  0.206895 -17.4654 3.1915
lThigh  -8.906 -12.865 -2.10853
lShin  -16.5974 9.35488 -5.77499
lFoot  3.92176 -0.579392 -4.52237
rThigh  14.2991 -7.10729 -4.65022
rShin  19.9733 13.6551 7.2658
rFoot  -6.30824 1.15675 2.7589
